<svg fill="none" height="24" viewBox="0 0 24 24" width="24" xmlns="http://www.w3.org/2000/svg"><g stroke="currentColor" stroke-linecap="round" stroke-linejoin="round" stroke-width="2"><path d="m3 18v-6c0-2.38695.94821-4.67613 2.63604-6.36396s3.97701-2.63604 6.36396-2.63604c2.3869 0 4.6761.94821 6.364 2.63604 1.6878 1.68783 2.636 3.97701 2.636 6.36396v6"/><path d="m21 19c0 .5304-.2107 1.0391-.5858 1.4142s-.8838.5858-1.4142.5858h-1c-.5304 0-1.0391-.2107-1.4142-.5858s-.5858-.8838-.5858-1.4142v-3c0-.5304.2107-1.0391.5858-1.4142s.8838-.5858 1.4142-.5858h3zm-18 0c0 .5304.21071 1.0391.58579 1.4142.37507.3751.88378.5858 1.41421.5858h1c.53043 0 1.03914-.2107 1.41421-.5858.37508-.3751.58579-.8838.58579-1.4142v-3c0-.5304-.21071-1.0391-.58579-1.4142-.37507-.3751-.88378-.5858-1.41421-.5858h-3z"/></g></svg>
