<svg fill="none" height="24" viewBox="0 0 24 24" width="24" xmlns="http://www.w3.org/2000/svg"><path d="m13 2h-7c-.53043 0-1.03914.21071-1.41421.58579-.37508.37507-.58579.88378-.58579 1.41421v16c0 .5304.21071 1.0391.58579 1.4142.37507.3751.88378.5858 1.41421.5858h12c.5304 0 1.0391-.2107 1.4142-.5858s.5858-.8838.5858-1.4142v-11z" stroke="currentColor" stroke-linecap="round" stroke-linejoin="round" stroke-width="2"/><path d="m13 2v7h7" stroke="currentColor" stroke-linecap="round" stroke-linejoin="round" stroke-width="2"/><path d="m7.432 17.25v-3.9h1.05c.56 0 .988.168 1.284.504.3.332.45.814.45 1.446s-.148 1.116-.444 1.452c-.292.332-.716.498-1.272.498zm.72-.66h.294c.356 0 .618-.104.786-.312.168-.212.252-.538.252-.978s-.084-.764-.252-.972c-.168-.212-.43-.318-.786-.318h-.294zm4.0685.732c-.496 0-.872-.17-1.128-.51-.256-.344-.384-.848-.384-1.512 0-.668.128-1.172.384-1.512s.632-.51 1.128-.51c.5 0 .876.17 1.128.51.256.34.384.844.384 1.512 0 .664-.128 1.168-.384 1.512-.252.34-.628.51-1.128.51zm0-.672c.52 0 .78-.45.78-1.35s-.26-1.35-.78-1.35-.78.45-.78 1.35.26 1.35.78 1.35zm3.7084.672c-.528 0-.932-.172-1.212-.516-.276-.348-.414-.85-.414-1.506s.138-1.156.414-1.5c.28-.348.684-.522 1.212-.522.44 0 .82.142 1.14.426l-.366.558c-.232-.208-.488-.312-.768-.312-.6 0-.9.45-.9 1.35s.3 1.35.9 1.35c.16 0 .308-.032.444-.096s.272-.164.408-.3l.408.522c-.184.188-.376.326-.576.414s-.43.132-.69.132z" fill="currentColor"/></svg>
