<svg fill="none" height="24" viewBox="0 0 24 24" width="24" xmlns="http://www.w3.org/2000/svg"><g stroke="currentColor" stroke-linecap="round" stroke-linejoin="round" stroke-width="2"><path d="m10 13c.4295.5742.9774 1.0492 1.6066 1.393.6291.3437 1.3249.5481 2.0401.5994.7151.0512 1.4329-.052 2.1046-.3026.6718-.2506 1.2818-.6427 1.7887-1.1498l3-3c.9108-.94298 1.4148-2.206 1.4034-3.51698s-.5373-2.56505-1.4643-3.49209-2.1811-1.45288-3.4921-1.46427c-1.311-.0114-2.574.49258-3.517 1.40337l-1.72 1.71"/><path d="m14.0002 11c-.4295-.5741-.9774-1.0492-1.6066-1.39296-.6291-.34376-1.3249-.54818-2.0401-.59939-.71509-.05122-1.43289.05196-2.10465.30255-.67175.25059-1.28176.64271-1.78865 1.1498l-3 3c-.91079.943-1.41476 2.206-1.40337 3.517s.53724 2.565 1.46428 3.4921c.92704.927 2.1811 1.4529 3.49208 1.4643 1.31099.0113 2.574-.4926 3.51701-1.4034l1.71-1.71"/></g></svg>
