<svg fill="none" height="24" viewBox="0 0 24 24" width="24" xmlns="http://www.w3.org/2000/svg"><path d="m13 2h-7c-.53043 0-1.03914.21071-1.41421.58579-.37508.37507-.58579.88378-.58579 1.41421v16c0 .5304.21071 1.0391.58579 1.4142.37507.3751.88378.5858 1.41421.5858h12c.5304 0 1.0391-.2107 1.4142-.5858s.5858-.8838.5858-1.4142v-11z" stroke="currentColor" stroke-linecap="round" stroke-linejoin="round" stroke-width="2"/><path d="m13 2v7h7" stroke="currentColor" stroke-linecap="round" stroke-linejoin="round" stroke-width="2"/><path d="m7.474 17.25v-3.9h1.476c.416 0 .732.102.948.306.22.2.33.49.33.87s-.11.672-.33.876c-.216.2-.532.3-.948.3h-.75v1.548zm.726-2.208h.69c.216 0 .37-.04.462-.12.096-.08.144-.212.144-.396s-.048-.316-.144-.396c-.092-.08-.246-.12-.462-.12h-.69zm2.7125 2.208v-3.9h1.05c.56 0 .988.168 1.284.504.3.332.45.814.45 1.446s-.148 1.116-.444 1.452c-.292.332-.716.498-1.272.498zm.72-.66h.294c.356 0 .618-.104.786-.312.168-.212.252-.538.252-.978s-.084-.764-.252-.972c-.168-.212-.43-.318-.786-.318h-.294zm2.9164.66v-3.9h2.562v.66h-1.842v.972h1.554v.66h-1.554v1.608z" fill="currentColor"/></svg>
